<?xml version="1.0" encoding="UTF-8"?>
<svg width="400px" height="400px" viewBox="0 0 400 400" version="1.1" xmlns="http://www.w3.org/2000/svg" xmlns:xlink="http://www.w3.org/1999/xlink">
    <title>Artboard</title>
    <g id="Artboard" stroke="none" stroke-width="1" fill="none" fill-rule="evenodd">
        <g id="100_logo_blue" transform="translate(6.000000, 81.000000)" fill="#001965" fill-rule="nonzero">
            <g id="Group" transform="translate(0.000000, 53.000000)">
                <path d="M85.666205,177.721387 L73.5975069,177.721387 L73.5975069,58.0578035 C78.4465374,52.0369942 82.5412742,45.3710983 85.666205,38.2751445 L85.666205,177.721387 Z M53.4470914,76.8728324 C57.7573407,73.8624277 61.8520776,70.5294798 65.5157895,66.8739884 L65.5157895,177.721387 L53.4470914,177.721387 L53.4470914,76.8728324 Z M0.862049861,44.833526 L0.862049861,52.8971098 C27.1545706,52.8971098 48.8135734,33.6520231 52.6927978,8.60115607 L64.8692521,8.60115607 C60.8822715,40.3179191 33.7277008,65.0462428 0.754293629,65.0462428 L0.754293629,73.1098266 C38.1457064,73.1098266 68.9639889,44.9410405 72.9509695,8.60115607 L85.1274238,8.60115607 C81.032687,51.499422 44.8265928,85.1514451 0.754293629,85.1514451 L0.754293629,93.2150289 C16.8099723,93.2150289 32.0036011,89.1294798 45.1498615,81.9260116 L45.1498615,185.892486 L93.6401662,185.892486 L93.6401662,0.430057803 L45.1498615,0.430057803 C45.365374,24.9433526 25.4304709,44.833526 0.862049861,44.833526" id="Shape"></path>
                <path d="M295.683102,177.721387 C280.812742,177.721387 266.804432,173.850867 254.627978,167.077457 C258.076177,164.49711 261.41662,161.59422 264.433795,158.583815 C273.916343,163.099422 284.476454,165.572254 295.683102,165.572254 C335.768421,165.572254 368.310803,133.10289 368.310803,93.1075145 C368.310803,53.1121387 335.768421,20.6427746 295.683102,20.6427746 C284.476454,20.6427746 273.916343,23.1156069 264.433795,27.6312139 C261.41662,24.6208092 258.076177,21.7179191 254.627978,19.1375723 C266.804432,12.3641618 280.812742,8.49364162 295.683102,8.49364162 C342.449307,8.49364162 380.487258,46.4462428 380.487258,93.1075145 C380.487258,139.768786 342.449307,177.721387 295.683102,177.721387 M239.865374,125.576879 C246.977285,116.653179 251.179778,105.364162 251.179778,93.1075145 C251.179778,80.8508671 246.977285,69.5618497 239.865374,60.6381503 C242.020499,57.0901734 244.391136,53.649711 247.192798,50.5317919 C257.214127,61.9283237 263.356233,76.7653179 263.356233,93.1075145 C263.356233,109.449711 257.214127,124.286705 247.192798,135.683237 C244.498892,132.565318 242.020499,129.23237 239.865374,125.576879 M234.154294,54.5098266 C224.779501,46.016185 212.387535,40.7479769 198.702493,40.7479769 C169.716066,40.7479769 146.225208,64.1861272 146.225208,93.1075145 C146.225208,122.028902 169.716066,145.467052 198.702493,145.467052 C212.387535,145.467052 224.779501,140.306358 234.154294,131.705202 C236.309418,135.145665 238.787812,138.371098 241.481717,141.381503 C230.059557,151.380347 215.08144,157.508671 198.810249,157.508671 C163.142936,157.508671 134.264266,128.587283 134.264266,93.1075145 C134.264266,57.6277457 163.250693,28.5988439 198.810249,28.5988439 C215.189197,28.5988439 230.167313,34.7271676 241.481717,44.7260116 C238.787812,47.8439306 236.309418,51.0693642 234.154294,54.5098266 M231.029363,93.1075145 C231.029363,84.5063584 232.753463,76.3352601 235.770637,68.8092486 C240.404155,75.7976879 243.098061,84.183815 243.098061,93.1075145 C243.098061,102.138728 240.404155,110.417341 235.770637,117.40578 C232.753463,109.987283 231.029363,101.708671 231.029363,93.1075145 M212.926316,135.145665 C208.50831,136.650867 203.767036,137.403468 198.810249,137.403468 C174.349584,137.403468 154.414681,117.513295 154.414681,93.1075145 C154.414681,68.7017341 174.349584,48.8115607 198.810249,48.8115607 C203.767036,48.8115607 208.50831,49.6716763 212.926316,51.0693642 C206.460942,63.6485549 202.79723,77.9479769 202.79723,93.1075145 C202.79723,108.267052 206.460942,122.566474 212.926316,135.145665 M220.25374,131.812717 C214.219391,120.201156 210.771191,107.084393 210.771191,93.1075145 C210.771191,79.1306358 214.219391,66.0138728 220.25374,54.4023121 C223.809695,56.4450867 227.150139,58.9179191 230.059557,61.8208092 C225.533795,71.2820809 222.947645,81.9260116 222.947645,93.2150289 C222.947645,104.396532 225.533795,115.040462 230.059557,124.609249 C227.150139,127.404624 223.917452,129.877457 220.25374,131.812717 M283.506648,93.1075145 C283.506648,114.287861 275.640443,133.640462 262.709695,148.584971 C259.261496,146.542197 255.921053,144.176879 252.903878,141.489017 C264.433795,128.694798 271.43795,111.707514 271.43795,93.2150289 C271.43795,74.6150289 264.433795,57.7352601 252.903878,44.9410405 C255.921053,42.2531792 259.15374,39.8878613 262.709695,37.8450867 C275.640443,52.5745665 283.506648,71.9271676 283.506648,93.1075145 M281.567036,135.145665 C288.03241,122.566474 291.696122,108.267052 291.696122,93.1075145 C291.696122,77.9479769 288.03241,63.7560694 281.567036,51.0693642 C285.985042,49.5641618 290.726316,48.7040462 295.683102,48.7040462 C320.143767,48.7040462 340.07867,68.5942197 340.07867,93 C340.07867,117.40578 320.143767,137.295954 295.683102,137.295954 C290.726316,137.403468 285.985042,136.650867 281.567036,135.145665 M277.472299,142.241618 C283.18338,144.284393 289.217729,145.467052 295.683102,145.467052 C324.669529,145.467052 348.160388,122.028902 348.160388,93.1075145 C348.160388,64.1861272 324.669529,40.7479769 295.683102,40.7479769 C289.325485,40.7479769 283.18338,41.9306358 277.472299,43.9734104 C275.209418,40.4254335 272.838781,37.0924855 270.144875,33.867052 C278.01108,30.534104 286.631579,28.5988439 295.683102,28.5988439 C331.350416,28.5988439 360.336842,57.5202312 360.336842,93.1075145 C360.336842,128.694798 331.350416,157.508671 295.683102,157.508671 C286.631579,157.508671 278.01108,155.680925 270.144875,152.240462 C272.838781,149.122543 275.209418,145.789595 277.472299,142.241618 M114.006094,93.1075145 C114.006094,46.4462428 152.044044,8.49364162 198.810249,8.49364162 C221.331302,8.49364162 241.804986,17.3098266 257.106371,31.716763 C253.658172,33.867052 250.317729,36.3398844 247.300554,39.0277457 C234.477562,27.5236994 217.452078,20.5352601 198.810249,20.5352601 C158.724931,20.5352601 126.182548,53.0046243 126.182548,93 C126.182548,132.995376 158.724931,165.46474 198.810249,165.46474 C217.452078,165.46474 234.369806,158.476301 247.300554,146.972254 C250.317729,149.660116 253.658172,152.132948 257.106371,154.283237 C241.912742,168.690173 221.439058,177.507268 198.810249,177.507268 C152.044044,177.721387 114.006094,139.768786 114.006094,93.1075145 M295.683102,0.430057803 C277.903324,0.430057803 261.308864,5.37572254 247.300554,14.0843931 C233.184488,5.48323699 216.590028,0.430057803 198.810249,0.430057803 C147.518283,0.430057803 105.924377,41.9306358 105.924377,93.1075145 C105.924377,144.284393 147.518283,185.784971 198.810249,185.784971 C216.590028,185.784971 233.184488,180.839306 247.300554,172.130636 C261.41662,180.731792 278.01108,185.784971 295.683102,185.784971 C346.975069,185.784971 388.568975,144.284393 388.568975,93.1075145 C388.461219,41.9306358 346.975069,0.430057803 295.683102,0.430057803" id="Shape"></path>
            </g>
            <polygon id="Path" points="47 1 47 3.01831502 50.5555556 3.86813187 50.5555556 27.1318681 47 27.8754579 47 30 58 30 58 27.8754579 54.4444444 27.1318681 54.4444444 3.86813187 58 3.01831502 58 1"></polygon>
            <g id="Group" transform="translate(62.000000, 0.000000)">
                <path d="M24.2929577,29.8241379 L19.9549296,29.8241379 L4.12112676,5.55862069 L3.90422535,5.55862069 C3.90422535,6.52068966 4.01267606,7.69655172 4.12112676,9.0862069 C4.22957746,10.4758621 4.22957746,11.9724138 4.22957746,13.4689655 L4.22957746,29.8241379 L0.75915493,29.8241379 L0.75915493,0.64137931 L5.0971831,0.64137931 L20.9309859,24.8 L21.1478873,24.8 C21.1478873,24.3724138 21.0394366,23.7310345 21.0394366,22.8758621 C21.0394366,22.0206897 20.9309859,21.0586207 20.9309859,19.9896552 C20.9309859,18.9206897 20.8225352,17.9586207 20.8225352,17.1034483 L20.8225352,0.64137931 L24.2929577,0.64137931 L24.2929577,29.8241379 L24.2929577,29.8241379 Z" id="Path"></path>
                <path d="M49.2366197,22.0206897 C49.2366197,24.5862069 48.2605634,26.6172414 46.4169014,28.1137931 C44.4647887,29.6103448 41.9704225,30.2517241 38.7169014,30.2517241 C37.0901408,30.2517241 35.571831,30.1448276 34.0535211,29.9310345 C32.643662,29.7172414 31.4507042,29.3965517 30.4746479,28.862069 L30.4746479,25.3344828 C31.4507042,25.762069 32.7521127,26.1896552 34.1619718,26.5103448 C35.6802817,26.8310345 37.1985915,27.0448276 38.7169014,27.0448276 C40.8859155,27.0448276 42.5126761,26.6172414 43.7056338,25.762069 C44.7901408,24.9068966 45.4408451,23.7310345 45.4408451,22.3413793 C45.4408451,21.3793103 45.2239437,20.6310345 44.7901408,19.8827586 C44.356338,19.2413793 43.7056338,18.6 42.6211268,18.0655172 C41.6450704,17.5310345 40.2352113,16.8896552 38.3915493,16.2482759 C35.8971831,15.3931034 33.9450704,14.2172414 32.643662,12.9344828 C31.3422535,11.6517241 30.6915493,9.83448276 30.6915493,7.58965517 C30.6915493,6.09310345 31.1253521,4.70344828 31.884507,3.63448276 C32.643662,2.56551724 33.8366197,1.60344828 35.2464789,1.06896552 C36.656338,0.427586207 38.2830986,0.213793103 40.2352113,0.213793103 C41.8619718,0.213793103 43.271831,0.320689655 44.6816901,0.64137931 C45.9830986,0.962068966 47.284507,1.38965517 48.3690141,1.81724138 L47.1760563,4.91724138 C46.2,4.48965517 45.0070423,4.06206897 43.8140845,3.84827586 C42.6211268,3.52758621 41.3197183,3.42068966 40.1267606,3.42068966 C38.2830986,3.42068966 36.8732394,3.84827586 35.8971831,4.59655172 C34.9211268,5.34482759 34.4873239,6.4137931 34.4873239,7.69655172 C34.4873239,8.65862069 34.7042254,9.5137931 35.1380282,10.1551724 C35.571831,10.7965517 36.2225352,11.437931 37.1985915,11.9724138 C38.1746479,12.5068966 39.3676056,13.0413793 40.9943662,13.6827586 C42.7295775,14.3241379 44.2478873,14.9655172 45.4408451,15.7137931 C46.6338028,16.462069 47.6098592,17.3172414 48.1521127,18.2793103 C48.9112676,19.2413793 49.2366197,20.5241379 49.2366197,22.0206897" id="Path"></path>
                <path d="M77,0.64137931 L77,19.562069 C77,21.5931034 76.5661972,23.4103448 75.8070423,25.0137931 C74.9394366,26.6172414 73.7464789,27.9 72.0112676,28.862069 C70.2760563,29.8241379 68.1070423,30.2517241 65.5042254,30.2517241 C61.8169014,30.2517241 58.9971831,29.2896552 57.0450704,27.2586207 C55.0929577,25.3344828 54.2253521,22.662069 54.2253521,19.4551724 L54.2253521,0.64137931 L57.9126761,0.64137931 L57.9126761,19.562069 C57.9126761,21.9137931 58.5633803,23.7310345 59.8647887,25.1206897 C61.1661972,26.4034483 63.1183099,27.0448276 65.7211268,27.0448276 C68.4323944,27.0448276 70.384507,26.2965517 71.5774648,24.9068966 C72.7704225,23.5172414 73.4211268,21.7 73.4211268,19.4551724 L73.4211268,0.534482759 L77,0.534482759 L77,0.64137931 L77,0.64137931 Z" id="Path"></path>
            </g>
            <polygon id="Path" points="147 1 147 30 164 30 164 26.7069597 150.863636 26.7069597 150.863636 1"></polygon>
            <polygon id="Path" points="166 1 166 3.01831502 169.555556 3.86813187 169.555556 27.1318681 166 27.8754579 166 30 177 30 177 27.8754579 173.444444 27.1318681 173.444444 3.86813187 177 3.01831502 177 1"></polygon>
            <path d="M206,30 L201.760369,30 L186.285714,5.88644689 L186.073733,5.88644689 C186.073733,6.84249084 186.179724,8.01098901 186.285714,9.39194139 C186.391705,10.7728938 186.391705,12.2600733 186.391705,13.7472527 L186.391705,30 L183,30 L183,1 L187.239631,1 L202.714286,25.007326 L202.926267,25.007326 C202.926267,24.5824176 202.820276,23.9450549 202.820276,23.0952381 C202.820276,22.2454212 202.714286,21.2893773 202.714286,20.2271062 C202.714286,19.1648352 202.608295,18.2087912 202.608295,17.3589744 L202.608295,1 L206,1 L206,30 L206,30 Z" id="Path"></path>
        </g>
    </g>
</svg>